<?xml version="1.0" encoding="utf-8"?>
<!-- Generator: Adobe Illustrator 17.0.0, SVG Export Plug-In . SVG Version: 6.00 Build 0)  -->
<!DOCTYPE svg PUBLIC "-//W3C//DTD SVG 1.1//EN" "http://www.w3.org/Graphics/SVG/1.1/DTD/svg11.dtd">
<svg version="1.1" id="Capa_1" xmlns="http://www.w3.org/2000/svg" xmlns:xlink="http://www.w3.org/1999/xlink" x="0px" y="0px"
	 width="511px" height="599.731px" viewBox="45.5 233 511 599.731" enable-background="new 45.5 233 511 599.731"
	 xml:space="preserve">
<g>
	<g>
		<path fill="#FFFFFF" d="M297.826,556.297c0.621,0,1.242,0,1.988,0c0.249,0,0.497,0,0.746,0c0.373,0,0.87,0,1.242,0
			c36.405-0.621,65.852-13.419,87.596-37.896c47.836-53.924,39.884-146.366,39.014-155.187
			c-3.106-66.225-34.417-97.908-60.261-112.694c-19.259-11.058-41.748-17.022-66.846-17.519h-0.87c-0.124,0-0.373,0-0.497,0h-0.746
			c-13.792,0-40.878,2.236-66.846,17.022c-26.092,14.786-57.9,46.469-61.006,113.191c-0.87,8.822-8.822,101.263,39.014,155.187
			C231.973,542.878,261.421,555.676,297.826,556.297z M204.514,366.32c0-0.373,0.124-0.745,0.124-0.994
			c4.1-89.087,67.343-98.654,94.429-98.654h0.497c0.249,0,0.621,0,0.994,0c33.547,0.745,90.578,14.413,94.43,98.654
			c0,0.373,0,0.745,0.124,0.994c0.124,0.87,8.822,85.359-30.69,129.841c-15.655,17.643-36.529,26.341-63.988,26.589
			c-0.249,0-0.373,0-0.621,0l0,0c-0.249,0-0.373,0-0.621,0c-27.335-0.249-48.333-8.946-63.864-26.589
			C195.941,451.927,204.39,367.065,204.514,366.32z"/>
		<path fill="#FFFFFF" d="M555.146,709.62c0-0.124,0-0.249,0-0.373c0-0.994-0.124-1.988-0.124-3.106
			c-0.745-24.601-2.361-82.129-56.285-100.518c-0.373-0.124-0.87-0.249-1.242-0.373c-56.036-14.289-102.63-46.594-103.127-46.966
			c-7.579-5.343-18.016-3.479-23.359,4.1c-5.343,7.579-3.479,18.016,4.1,23.359c2.112,1.491,51.563,35.908,113.44,51.812
			c28.95,10.313,32.181,41.251,33.05,69.58c0,1.118,0,2.112,0.124,3.106c0.124,11.182-0.621,28.453-2.609,38.393
			c-20.128,11.431-99.027,50.942-219.052,50.942c-119.528,0-198.923-39.635-219.176-51.066c-1.988-9.94-2.858-27.211-2.609-38.393
			c0-0.994,0.124-1.988,0.124-3.106c0.87-28.329,4.1-59.267,33.05-69.58c61.876-15.904,111.327-50.445,113.44-51.812
			c7.579-5.343,9.443-15.78,4.1-23.359c-5.343-7.579-15.78-9.443-23.359-4.1c-0.497,0.373-46.842,32.678-103.127,46.966
			c-0.497,0.124-0.87,0.249-1.242,0.373c-53.924,18.513-55.539,76.041-56.285,100.518c0,1.118,0,2.112-0.124,3.106
			c0,0.124,0,0.249,0,0.373c-0.124,6.461-0.249,39.636,6.337,56.285c1.242,3.23,3.479,5.964,6.461,7.828
			C61.379,776.094,150.714,833,300.186,833s238.807-57.03,242.535-59.391c2.858-1.864,5.219-4.597,6.461-7.828
			C555.394,749.256,555.27,716.081,555.146,709.62z"/>
	</g>
</g>
</svg>
