<?xml version="1.0" encoding="utf-8"?>
<!-- Generator: Adobe Illustrator 17.0.0, SVG Export Plug-In . SVG Version: 6.00 Build 0)  -->
<!DOCTYPE svg PUBLIC "-//W3C//DTD SVG 1.1//EN" "http://www.w3.org/Graphics/SVG/1.1/DTD/svg11.dtd">
<svg version="1.1" id="Capa_1" xmlns="http://www.w3.org/2000/svg" xmlns:xlink="http://www.w3.org/1999/xlink" x="0px" y="0px"
	 width="600px" height="1066px" viewBox="0 0 600 1066" enable-background="new 0 0 600 1066" xml:space="preserve">
<g>
	<path fill="#FFFFFF" d="M336.254,596.323v-42.588c0-16.792-13.661-30.454-30.454-30.454s-30.454,13.661-30.454,30.454v38.452
		c0,46.337-17.071,90.826-48.07,125.268l-42.74,47.489c-3.591,3.99-3.267,10.135,0.723,13.727
		c3.989,3.591,10.134,3.267,13.726-0.723l42.74-47.489c34.216-38.019,53.059-87.124,53.059-138.272v-38.452
		c0-6.074,4.941-11.015,11.015-11.015s11.015,4.941,11.015,11.015v42.588c0,57.023-21.124,111.663-59.483,153.858l-41.662,45.828
		c-3.61,3.971-3.317,10.12,0.654,13.73c1.862,1.694,4.201,2.527,6.534,2.527c2.644,0,5.277-1.072,7.195-3.181l41.66-45.828
		C313.333,717.476,336.254,658.191,336.254,596.323z"/>
	<path fill="#FFFFFF" d="M377.723,553.734c0-39.658-32.264-71.922-71.922-71.922s-71.922,32.264-71.922,71.922v38.452
		c0,36.076-13.291,70.712-37.424,97.527l-30.385,33.762c-3.591,3.99-3.267,10.135,0.723,13.727
		c3.99,3.591,10.134,3.264,13.726-0.723l30.385-33.762c27.351-30.39,42.415-69.644,42.415-110.531v-38.452
		c0-28.94,23.544-52.484,52.484-52.484s52.484,23.544,52.484,52.484v42.588c0,67.359-24.954,131.908-70.267,181.752l-35.151,38.668
		c-3.612,3.971-3.319,10.12,0.653,13.73c1.862,1.694,4.201,2.527,6.534,2.527c2.644,0,5.277-1.072,7.195-3.181l35.152-38.668
		c48.571-53.43,75.321-122.62,75.321-194.828V553.734z"/>
	<path fill="#FFFFFF" d="M419.191,553.734c0-62.524-50.867-113.391-113.391-113.391S192.41,491.21,192.41,553.734v38.452
		c0,25.814-9.511,50.598-26.78,69.785l-27.359,30.399c-3.591,3.99-3.267,10.135,0.723,13.727c3.989,3.591,10.135,3.264,13.726-0.723
		l27.359-30.399c20.487-22.762,31.769-52.165,31.769-82.79v-38.452c0-51.806,42.146-93.952,93.952-93.952
		s93.952,42.146,93.952,93.952v42.588c0,77.699-28.784,152.154-81.052,209.646l-9.728,10.701c-3.61,3.972-3.317,10.12,0.654,13.73
		c1.862,1.692,4.203,2.527,6.534,2.527c2.644,0,5.277-1.072,7.195-3.181l9.727-10.702c55.527-61.079,86.107-140.176,86.107-222.722
		v-42.588H419.191z"/>
	<path fill="#FFFFFF" d="M150.941,553.734c0,5.369,4.352,9.719,9.719,9.719s9.719-4.35,9.719-9.719
		c0-32.728,11.882-64.343,33.459-89.022c21.376-24.45,50.714-40.438,82.608-45.021c5.313-0.763,9.001-5.69,8.238-11.002
		c-0.763-5.313-5.694-8.996-11.002-8.238c-36.492,5.243-70.046,23.521-94.479,51.468C164.53,480.14,150.941,516.3,150.941,553.734z"
		/>
	<path fill="#FFFFFF" d="M170.379,592.186c0-5.369-4.352-9.719-9.719-9.719s-9.719,4.35-9.719,9.719
		c0,15.553-5.729,30.483-16.133,42.043l-24.336,27.041c-3.591,3.989-3.267,10.134,0.723,13.726c1.858,1.672,4.182,2.495,6.499,2.495
		c2.659,0,5.309-1.086,7.227-3.218l24.336-27.04C162.877,632.099,170.379,612.55,170.379,592.186z"/>
	<path fill="#FFFFFF" d="M441.583,678.948c-5.195-1.353-10.503,1.751-11.864,6.942c-3.588,13.709-8.051,27.338-13.27,40.507
		c-1.978,4.991,0.465,10.639,5.456,12.616c1.175,0.465,2.386,0.686,3.578,0.686c3.868,0,7.527-2.326,9.039-6.141
		c5.506-13.898,10.217-28.279,14.003-42.746C449.883,685.619,446.774,680.307,441.583,678.948z"/>
	<path fill="#FFFFFF" d="M409.232,438.571c-3.993-3.591-10.138-3.262-13.726,0.73s-3.262,10.137,0.73,13.725
		c28.589,25.7,44.984,62.406,44.984,100.709v42.588c0,16.164-1.114,32.452-3.314,48.413c-0.732,5.318,2.984,10.222,8.302,10.954
		c0.45,0.062,0.897,0.092,1.339,0.092c4.779,0,8.946-3.527,9.616-8.395c2.32-16.838,3.496-34.019,3.496-51.066v-42.587
		C460.66,509.927,441.915,467.951,409.232,438.571z"/>
	<path fill="#FFFFFF" d="M363.796,431.371c1.349,0.643,2.771,0.946,4.171,0.946c3.632,0,7.117-2.046,8.782-5.544
		c2.308-4.845,0.249-10.646-4.597-12.952c-14.003-6.667-28.887-11.165-44.237-13.37c-5.321-0.758-10.239,2.926-11.002,8.238
		c-0.763,5.312,2.925,10.239,8.238,11.002C338.562,421.618,351.562,425.547,363.796,431.371z"/>
	<path fill="#FFFFFF" d="M305.8,357.406c-3.636,0-7.314,0.101-10.933,0.301c-5.36,0.295-9.465,4.88-9.17,10.239
		c0.297,5.36,4.876,9.487,10.24,9.168c3.264-0.18,6.582-0.271,9.862-0.271c97.537,0,176.89,79.352,176.89,176.89v42.588
		c0,5.369,4.352,9.719,9.719,9.719c5.368,0,9.719-4.35,9.719-9.719v-42.587C502.129,445.479,414.056,357.406,305.8,357.406z"/>
	<path fill="#FFFFFF" d="M199.532,410.14c1.914,0,3.849-0.565,5.54-1.74c16.17-11.244,33.929-19.639,52.786-24.956
		c5.167-1.457,8.174-6.827,6.718-11.992s-6.828-8.169-11.992-6.718c-20.942,5.904-40.66,15.225-58.608,27.705
		c-4.407,3.065-5.496,9.122-2.431,13.528C193.432,408.685,196.457,410.14,199.532,410.14z"/>
	<path fill="#FFFFFF" d="M128.911,592.186v-38.452c0-45.214,17.123-88.274,48.214-121.251c3.682-3.906,3.501-10.056-0.404-13.739
		c-3.906-3.683-10.057-3.5-13.739,0.404c-34.506,36.597-53.509,84.395-53.509,134.585v38.452c0,5.291-1.949,10.37-5.487,14.3
		l-11.984,13.315c-3.591,3.99-3.267,10.135,0.723,13.726c1.857,1.673,4.182,2.496,6.499,2.496c2.659,0,5.308-1.085,7.227-3.216
		l11.984-13.315C125.19,611.984,128.911,602.286,128.911,592.186z"/>
	<path fill="#FFFFFF" d="M531.254,478.059c-10.66-31.679-27.601-60.299-50.353-85.065c-3.632-3.952-9.78-4.214-13.733-0.582
		c-3.952,3.632-4.213,9.78-0.582,13.734c20.899,22.748,36.459,49.029,46.245,78.111c1.366,4.06,5.153,6.622,9.21,6.622
		c1.028,0,2.073-0.165,3.101-0.511C530.229,488.657,532.966,483.146,531.254,478.059z"/>
	<path fill="#FFFFFF" d="M382.609,328.666c-5.076-1.738-10.604,0.969-12.342,6.049c-1.738,5.079,0.971,10.604,6.049,12.341
		c21.432,7.333,41.553,17.957,59.806,31.58c1.746,1.302,3.784,1.93,5.806,1.93c2.962,0,5.889-1.349,7.797-3.907
		c3.211-4.301,2.325-10.392-1.976-13.602C427.874,348.226,405.958,336.654,382.609,328.666z"/>
	<path fill="#FFFFFF" d="M154.784,396.164c40.884-39.2,94.516-60.788,151.016-60.788c10.492,0,21.041,0.756,31.355,2.243
		c5.317,0.775,10.241-2.918,11.009-8.232c0.767-5.313-2.917-10.24-8.23-11.007c-11.233-1.62-22.717-2.443-34.134-2.443
		c-61.538,0-119.948,23.509-164.469,66.196c-44.382,42.555-70.337,99.661-73.085,160.8c-0.241,5.362,3.911,9.906,9.272,10.146
		c0.149,0.008,0.297,0.01,0.444,0.01c5.167,0,9.468-4.069,9.702-9.283C90.187,487.679,114.023,435.245,154.784,396.164z"/>
	<path fill="#FFFFFF" d="M305.8,274.469c-21.735,0-43.393,2.519-64.372,7.488c-5.224,1.236-8.454,6.474-7.218,11.697
		c1.238,5.222,6.476,8.454,11.698,7.217c19.514-4.619,39.663-6.963,59.892-6.963c71.269,0,137.795,28.394,187.322,79.95
		c1.909,1.987,4.457,2.987,7.011,2.987c2.422,0,4.848-0.899,6.732-2.71c3.871-3.719,3.995-9.872,0.276-13.742
		c-25.805-26.863-56.117-47.995-90.093-62.806C381.857,282.247,344.427,274.469,305.8,274.469z"/>
	<path fill="#FFFFFF" d="M87.482,395.511c1.778,1.392,3.889,2.067,5.986,2.067c2.886,0,5.742-1.279,7.659-3.727
		c27.7-35.381,64.166-63.132,105.456-80.257c4.958-2.057,7.311-7.743,5.255-12.701s-7.746-7.314-12.701-5.255
		c-44.373,18.403-83.557,48.22-113.314,86.228C82.512,386.093,83.256,392.202,87.482,395.511z"/>
	<path fill="#FFFFFF" d="M171.036,283.184c1.418,0,2.857-0.311,4.218-0.969c40.922-19.759,84.844-29.776,130.546-29.776
		c23.816,0,47.536,2.802,70.498,8.327c5.216,1.252,10.467-1.957,11.723-7.175c1.256-5.219-1.957-10.468-7.177-11.724
		C356.396,235.983,331.147,233,305.8,233c-48.653,0-95.418,10.668-138.997,31.709c-4.834,2.334-6.86,8.145-4.527,12.978
		C163.953,281.159,167.423,283.184,171.036,283.184z"/>
	<path fill="#FFFFFF" d="M416.921,273.669c10.02,3.99,19.937,8.578,29.476,13.633c1.45,0.77,3.008,1.134,4.542,1.134
		c3.483,0,6.851-1.878,8.596-5.171c2.513-4.743,0.706-10.625-4.037-13.139c-10.156-5.382-20.716-10.266-31.387-14.515
		c-4.988-1.987-10.639,0.447-12.626,5.432C409.501,266.03,411.934,271.684,416.921,273.669z"/>
</g>
</svg>
