<?xml version="1.0" encoding="iso-8859-1"?>
<!-- Generator: Adobe Illustrator 19.0.0, SVG Export Plug-In . SVG Version: 6.00 Build 0)  -->
<svg xmlns="http://www.w3.org/2000/svg" xmlns:xlink="http://www.w3.org/1999/xlink" version="1.1" id="Layer_1" x="0px" y="0px" viewBox="0 0 294.174 294.174" style="enable-background:new 0 0 294.174 294.174;" xml:space="preserve" width="512px" height="512px">
<g>
	<g>
		<g>
			<path d="M254.445,251.222c-55.881-119.385-56.7-116.85-56.7-134.436V42.53h2.084c11.726,0,21.265-9.539,21.265-21.265     C221.094,9.539,211.555,0,199.829,0H94.347C82.621,0,73.082,9.54,73.082,21.266S82.621,42.53,94.347,42.53h2.084v74.256     c0,17.199-0.39,14.133-56.7,134.436c-9.367,20.012,5.26,42.952,27.32,42.952h160.074     C249.216,294.174,263.799,271.207,254.445,251.222z M94.347,27.531c-3.455-0.001-6.265-2.811-6.265-6.265     c0-3.455,2.811-6.266,6.265-6.266h105.482c3.454,0,6.265,2.81,6.265,6.266c0,3.454-2.811,6.265-6.265,6.265     C189.106,27.531,105.498,27.531,94.347,27.531z M136.795,104.258h-25.364v-8.231h25.364c4.143,0,7.5-3.357,7.5-7.5     s-3.357-7.5-7.5-7.5h-25.364v-8.23h25.364c4.143,0,7.5-3.357,7.5-7.5s-3.357-7.5-7.5-7.5h-25.364V42.53h71.314v74.256     c0,19.314,6.626,30.795,13.787,46.093c-14.39-9.812-13.506-23.301-27.341-28.248c-8.411-3.011-18.491,0.051-25.684,7.793     c-8.866,9.542-11.323,22.852-19.963,28.06c-2.82,1.699-6.324,2.005-8.33,0.726c-3.54-2.258-6.656-10.329-15.208-13.377     c4.956-10.588,10.791-21.165,11.378-38.575h25.411c4.143,0,7.5-3.357,7.5-7.5S140.938,104.258,136.795,104.258z M227.125,279.174     H67.051c-11.12,0-18.455-11.506-13.734-21.593l40.208-85.901c5.149,0.419,6.769,8.836,15.333,13.133     c7.04,3.531,15.658,2.599,22.429-1.481c13.152-7.928,16.116-23.063,23.209-30.696c2.514-2.707,6.644-4.95,9.644-3.881     c3.625,1.297,6.382,7.218,9.838,12.404c7.375,11.053,19.131,19.007,32.151,22.222l34.732,74.201     C245.573,267.653,238.262,279.174,227.125,279.174z" fill="#FFFFFF"/>
			<circle cx="173.088" cy="213.828" r="10.968" fill="#FFFFFF"/>
			<circle cx="109.849" cy="240.852" r="14.567" fill="#FFFFFF"/>
		</g>
	</g>
</g>
<g>
</g>
<g>
</g>
<g>
</g>
<g>
</g>
<g>
</g>
<g>
</g>
<g>
</g>
<g>
</g>
<g>
</g>
<g>
</g>
<g>
</g>
<g>
</g>
<g>
</g>
<g>
</g>
<g>
</g>
</svg>
