<?xml version="1.0" encoding="utf-8"?>
<!-- Generator: Adobe Illustrator 17.0.0, SVG Export Plug-In . SVG Version: 6.00 Build 0)  -->
<!DOCTYPE svg PUBLIC "-//W3C//DTD SVG 1.1//EN" "http://www.w3.org/Graphics/SVG/1.1/DTD/svg11.dtd">
<svg version="1.1" id="Capa_1" xmlns="http://www.w3.org/2000/svg" xmlns:xlink="http://www.w3.org/1999/xlink" x="0px" y="0px"
	 width="599.985px" height="600px" viewBox="0.006 233 599.985 600" enable-background="new 0.006 233 599.985 600"
	 xml:space="preserve">
<g id="Settings">
	<g>
		<path fill="#FFFFFF" d="M598.114,499.689c-0.949-8.434-10.783-14.772-19.286-14.772c-27.492,0-51.888-16.143-62.12-41.108
			c-10.452-25.57-3.713-55.391,16.777-74.186c6.449-5.896,7.233-15.765,1.824-22.621c-14.071-17.868-30.064-34.009-47.526-47.997
			c-6.838-5.487-16.871-4.724-22.8,1.842c-17.882,19.804-50.002,27.164-74.822,16.808c-25.829-10.865-42.117-37.038-40.523-65.133
			c0.525-8.825-5.925-16.498-14.723-17.522c-22.409-2.592-45.015-2.672-67.491-0.179c-8.698,0.96-15.147,8.452-14.855,17.165
			c0.978,27.818-15.506,53.534-41.079,64.008c-24.523,10.017-56.418,2.719-74.264-16.908c-5.898-6.465-15.768-7.26-22.639-1.904
			c-17.98,14.107-34.333,30.261-48.533,47.982c-5.539,6.889-4.724,16.875,1.79,22.802c20.88,18.909,27.622,48.989,16.774,74.854
			c-10.356,24.659-35.962,40.552-65.276,40.552c-9.512-0.306-16.288,6.079-17.328,14.727c-2.639,22.539-2.67,45.504-0.129,68.225
			c0.942,8.47,11.075,14.752,19.672,14.752c26.124-0.667,51.205,15.506,61.727,41.11c10.488,25.57,3.746,55.373-16.775,74.184
			c-6.418,5.896-7.233,15.75-1.824,22.606c13.939,17.755,29.935,33.911,47.459,48.015c6.874,5.539,16.875,4.757,22.833-1.808
			c17.949-19.853,50.067-27.2,74.789-16.824c25.894,10.832,42.182,37.003,40.588,65.113c-0.52,8.829,5.961,16.516,14.723,17.525
			c11.464,1.337,22.996,2.005,34.56,2.005c10.977,0,21.956-0.603,32.933-1.824c8.7-0.96,15.145-8.452,14.852-17.181
			c-1.007-27.803,15.507-53.518,41.046-63.975c24.689-10.084,56.449-2.703,74.298,16.904c5.932,6.452,15.732,7.231,22.641,1.893
			c17.947-14.073,34.266-30.214,48.533-47.984c5.536-6.874,4.755-16.875-1.793-22.8c-20.88-18.909-27.655-48.993-16.808-74.84
			c10.198-24.331,34.853-40.668,61.372-40.668l3.71,0.096c8.602,0.699,16.516-5.927,17.558-14.707
			C600.623,545.355,600.654,522.41,598.114,499.689z M300.474,633.702c-55.181,0-100.067-44.885-100.067-100.067
			c0-55.179,44.885-100.067,100.067-100.067c55.179,0,100.064,44.888,100.064,100.067
			C400.539,588.816,355.653,633.702,300.474,633.702z"/>
	</g>
</g>
</svg>
