<?xml version="1.0" encoding="utf-8"?>
<!-- Generator: Adobe Illustrator 17.0.0, SVG Export Plug-In . SVG Version: 6.00 Build 0)  -->
<!DOCTYPE svg PUBLIC "-//W3C//DTD SVG 1.1//EN" "http://www.w3.org/Graphics/SVG/1.1/DTD/svg11.dtd">
<svg version="1.1" id="Capa_1" xmlns="http://www.w3.org/2000/svg" xmlns:xlink="http://www.w3.org/1999/xlink" x="0px" y="0px"
	 width="600px" height="531.606px" viewBox="0 267.197 600 531.606" enable-background="new 0 267.197 600 531.606"
	 xml:space="preserve">
<g>
	<path fill="#FFFFFF" d="M81.584,785.391c0,0-0.533,13.412,12.568,13.412c16.299,0,151.243-0.178,151.243-0.178l0.222-123.93
		c0,0-2.132-20.429,17.698-20.429h62.754c23.449,0,22.006,20.429,22.006,20.429l-0.266,123.531c0,0,127.95,0,148.046,0
		c16.632,0,15.877-16.699,15.877-16.699V553.052L303.087,367.456L81.584,553.052C81.584,553.052,81.584,785.391,81.584,785.391z"/>
	<path fill="#FFFFFF" d="M0,535.776c0,0,18.808,34.663,59.822,0L304.93,328.418l229.808,206.07c47.476,34.241,65.263,0,65.263,0
		L304.93,267.197L0,535.776z"/>
	<polygon fill="#FFFFFF" points="529.164,327.93 470.052,327.93 470.296,399.61 529.164,449.551 	"/>
</g>
</svg>
